<svg xmlns="http://www.w3.org/2000/svg" xmlns:xlink="http://www.w3.org/1999/xlink" width="100" zoomAndPan="magnify" viewBox="0 0 75 74.999997" height="100" preserveAspectRatio="xMidYMid meet" version="1.0"><path fill="#a20000" d="M 7.9375 43.515625 C 11.480469 46.203125 12.832031 46.570312 15.792969 50.605469 C 20.628906 57.214844 19.925781 59.945312 21.363281 61.203125 C 22.796875 62.460938 29.382812 63.476562 33.871094 57.730469 C 38.359375 51.980469 45.363281 36.125 54.339844 26.605469 C 63.320312 17.082031 67.511719 14.335938 70.207031 12.894531 C 72.898438 11.457031 64.363281 11.800781 47.578125 25.125 C 35.910156 34.402344 27.644531 47.214844 27.644531 47.214844 C 27.644531 47.214844 25.3125 40.226562 20.121094 35.539062 C 14.925781 30.851562 2.058594 39.085938 7.9375 43.515625 Z M 7.9375 43.515625 " fill-opacity="1" fill-rule="nonzero"/></svg>